<svg id="Capa_1" data-name="Capa 1" xmlns="http://www.w3.org/2000/svg" viewBox="0 0 1080 1080"><title>logo-icono</title><path d="M969.9,327.8C883.6,178.2,731.1,90.4,570.7,79.8c136.8,10.5,255.1,87.3,322.6,198.4,38.2,62.7,59.6,136.5,59.6,215.2,0,91.7-31.7,174.8-79.8,245-19.8,28.8-7.1,69,23.2,86.5s70.1,8,86.1-23C1057.1,657.7,1057.2,479,969.9,327.8Z" fill="#d0302a" fill-rule="evenodd"/><path d="M107.4,277.8c-85,150.4-83.1,326.4-10.7,469.8-60.5-123.1-54.5-264,6.9-378.6,34.6-64.7,87.2-120.7,155-160.8,79-46.5,166.7-61.5,251.6-55.7,34.8,2.3,63-29.1,62.7-64S544.1,24.1,509.3,26C347.1,35,193.2,125.8,107.4,277.8Z" fill="#da5e2b" fill-rule="evenodd"/><path d="M486,1054c172.8-3,323.5-93.7,410.6-228.8a414.6,414.6,0,0,1-330,185.9c-73.3,2.9-148.2-14.1-217.1-52.3C269.3,914.3,212,846.3,174,770.1c-15.6-31.2-57-39.6-86.9-21.7s-41,57.5-21.7,86.5C155.3,970.2,311.5,1057,486,1054Z" fill="#eccb6c" fill-rule="evenodd"/></svg>