<svg id="Capa_1" data-name="Capa 1" xmlns="http://www.w3.org/2000/svg" viewBox="0 0 930 555"><title>1</title><path d="M370.7,541.5a12.3,12.3,0,0,0,12.4-12.4c0-6.9-5.5-12.2-12.6-12.2H360v24.6ZM365,521.7h4.8c4.3,0,8.1,2.6,8.1,7.4s-3.4,7.6-8,7.6H365Z" fill="#d0302a" fill-rule="evenodd"/><polygon points="400.5 516.9 400.5 541.5 423.6 541.5 423.6 537.4 405.4 537.4 405.4 530.7 421.3 530.7 421.3 527.1 405.4 527.1 405.4 521 423.6 521 423.6 516.9 400.5 516.9" fill="#d0302a" fill-rule="evenodd"/><polygon points="449 537.4 449 516.9 444 516.9 444 541.5 465.7 541.5 465.7 537.4 449 537.4" fill="#d0302a" fill-rule="evenodd"/><path d="M514.1,524.8c0,4.4,5,6.1,8.8,6.1h6.7c2.9,0,5.4.6,5.4,2.8s-4.3,4-7.6,4-7.5-1.4-7.6-4.3h-5.7c0,6.3,8.2,8,13.6,8s13.1-1.7,13.1-7.7-4.8-6.4-8.9-6.4h-6.5c-2.2,0-5.6-.3-5.6-2.7s4.2-4,7.7-4,6.9,1.3,7.1,4.3H540c0-5.5-6.2-8-12.6-8s-13.3,2.4-13.3,7.9Z" fill="#d0302a" fill-rule="evenodd"/><path d="M558.3,541.5h5.6l9-15.9,9,15.9h5.8l-14.8-25.9Zm16-26.1,3.7-4.8h-4.8l-1.7,4.8Zm-3.4,24a2,2,0,1,0,4,0,2,2,0,0,0-4,0Z" fill="#d0302a" fill-rule="evenodd"/><polygon points="624.6 516.9 624.6 532.6 606.4 516.2 606.4 541.5 611.4 541.5 611.4 526.5 629.5 542.6 629.5 516.9 624.6 516.9" fill="#d0302a" fill-rule="evenodd"/><path d="M661.2,541.5a12.3,12.3,0,0,0,12.4-12.4c0-6.9-5.5-12.2-12.6-12.2H650.5v24.6Zm-5.7-19.8h4.8c4.3,0,8.2,2.6,8.2,7.4s-3.5,7.6-8.1,7.6h-4.9Z" fill="#d0302a" fill-rule="evenodd"/><polygon points="699.1 541.5 707.4 528.3 715.7 541.5 722.9 516.9 717.8 516.9 713.4 531.5 707.4 521 701.4 531.5 697 516.9 691.9 516.9 699.1 541.5" fill="#d0302a" fill-rule="evenodd"/><rect x="739.3" y="516.9" width="4.9" height="24.52" fill="#d0302a"/><path d="M775.5,541.9a14,14,0,0,0,12.4-7.1l-4.8-1.6a9.1,9.1,0,0,1-7.6,3.9c-4.9,0-8.7-3.7-8.7-7.9s4.1-7.9,8.7-7.9a8.6,8.6,0,0,1,7.6,4.1l4.8-1.6a13.9,13.9,0,0,0-12.4-7.2c-7.6,0-13.8,5.6-13.8,12.6s6.2,12.7,13.8,12.7Z" fill="#d0302a" fill-rule="evenodd"/><polygon points="812.8 541.5 812.8 531.5 826 531.5 826 541.5 831 541.5 831 516.9 826 516.9 826 527.2 812.8 527.2 812.8 516.9 807.9 516.9 807.9 541.5 812.8 541.5" fill="#d0302a" fill-rule="evenodd"/><path d="M44.8,476.9V413.3H13v86.3H88V476.9Z" fill="#e0782f"/><path d="M94.8,499.6h34.9l16.5-29.8,16.7,29.8h34.9l-51.6-92.2Zm51.4-.2a7.1,7.1,0,1,0-7-7.1A7.1,7.1,0,0,0,146.2,499.4Z" fill="#e0782f"/><path d="M271.9,413.3v86.3h86.4v-25H301.5v-9.2h47.7V445.1H301.5V436h56.8V413.3Z" fill="#e0782f"/><path d="M368.4,441.4c0,16.3,16.8,24.1,30.4,24.1h16.4c2.9,0,8.4.3,8.4,4.3s-6,6.3-9.6,6.3-8-1.8-8.6-6H369.5c0,21.5,29.5,27.2,45.2,27.2,18.2,0,44.4-7.6,44.4-28.3,0-16.1-16-23.9-29.7-23.9H414c-3.4,0-9.8-.4-9.8-5.1s6.2-6.4,9.9-6.4,9,2.4,10,6.9h33.7c0-19.2-23.1-27.9-43.2-27.9S368.4,420.7,368.4,441.4Z" fill="#e0782f"/><path d="M468.7,455.9c0,26,24,43.5,48.5,43.5a55.8,55.8,0,0,0,12.2-1.5c9.4,8,21.2,13.1,33.6,13.1a32.1,32.1,0,0,0,8.8-1V491.8a25.2,25.2,0,0,1-6.3.9,34.5,34.5,0,0,1-16.2-4.2c10-8,16.5-19.8,16.5-32.6,0-26.1-24-43.6-48.6-43.6s-48.5,17.5-48.5,43.6ZM517,441c8.3,0,16.9,5.8,16.9,14.7s-8.6,14.7-16.9,14.7-16.9-5.7-16.9-14.7S508.6,441,517,441Z" fill="#e0782f"/><path d="M574,413.3v43.8c0,24.1,16.4,43.6,43.2,43.6s43.2-19.5,43.2-43.6V413.3H630.8v43.8c0,8.1-3.2,14.7-12.5,14.7s-12.5-6.6-12.5-14.7V413.3Z" fill="#e0782f"/><path d="M703.5,499.6V413.3H674v86.3Z" fill="#e0782f"/><path d="M771.7,413.3v34L717.1,410v89.6h29.7V470.1l56.8,34.7V413.3Z" fill="#e0782f"/><path d="M814,499.6h34.9l16.5-29.8,16.7,29.8H917l-51.6-92.2Zm51.4-.2a7.1,7.1,0,1,0-7.1-7.1A7.1,7.1,0,0,0,865.4,499.4Z" fill="#e0782f"/><path d="M607.6,111.8A166.8,166.8,0,0,0,473.8,28.6,138.4,138.4,0,0,1,601.9,167.3c0,30.7-10.6,58.6-26.7,82.2-6.6,9.6-2.4,23.1,7.7,28.9s23.6,2.7,28.9-7.7C636.9,222.4,636.9,162.5,607.6,111.8Z" fill="#d0302a" fill-rule="evenodd"/><path d="M318.5,95a166.7,166.7,0,0,0-3.6,157.5A138.6,138.6,0,0,1,369.2,71.7C395.6,56.1,425,51.1,453.5,53c11.7.8,21.1-9.7,21-21.4s-9.6-21.6-21.3-21A165.4,165.4,0,0,0,318.5,95Z" fill="#da5e2b" fill-rule="evenodd"/><path d="M445.4,355.3a167.1,167.1,0,0,0,137.7-76.7,138.6,138.6,0,0,1-183.5,44.7c-26.8-14.9-46.1-37.7-58.8-63.2-5.3-10.5-19.1-13.3-29.1-7.3s-13.8,19.3-7.3,29A165.4,165.4,0,0,0,445.4,355.3Z" fill="#eccb6c" fill-rule="evenodd"/></svg>