<svg width="904" height="532" xmlns="http://www.w3.org/2000/svg">
 <g>
  <title>Layer 1</title>
  <g id="svg_1">
   <title>logo</title>
   <path id="svg_2" d="m357.7,530.92592a12.3,12.3 0 0 0 12.4,-12.4c0,-6.9 -5.5,-12.2 -12.6,-12.2l-10.5,0l0,24.6l10.7,0zm-5.7,-19.8l4.8,0c4.3,0 8.1,2.6 8.1,7.4s-3.4,7.6 -8,7.6l-4.9,0l0,-15z" fill="#d0302a" fill-rule="evenodd"/>
   <polygon id="svg_3" points="387.5,506.3259506225586 387.5,530.9259262084961 410.5999755859375,530.9259262084961 410.5999755859375,526.8259506225586 392.39996337890625,526.8259506225586 392.39996337890625,520.1259384155273 408.29998779296875,520.1259384155273 408.29998779296875,516.5259017944336 392.39996337890625,516.5259017944336 392.39996337890625,510.4259262084961 410.5999755859375,510.4259262084961 410.5999755859375,506.3259506225586 387.5,506.3259506225586 " fill="#d0302a" fill-rule="evenodd"/>
   <polygon id="svg_4" points="436,526.8259506225586 436,506.3259506225586 431,506.3259506225586 431,530.9259262084961 452.70001220703125,530.9259262084961 452.70001220703125,526.8259506225586 436,526.8259506225586 " fill="#d0302a" fill-rule="evenodd"/>
   <path id="svg_5" d="m501.1,514.22592c0,4.4 5,6.1 8.8,6.1l6.7,0c2.9,0 5.4,0.6 5.4,2.8s-4.3,4 -7.6,4s-7.5,-1.4 -7.6,-4.3l-5.7,0c0,6.3 8.2,8 13.6,8s13.1,-1.7 13.1,-7.7s-4.8,-6.4 -8.9,-6.4l-6.5,0c-2.2,0 -5.6,-0.3 -5.6,-2.7s4.2,-4 7.7,-4s6.9,1.3 7.1,4.3l5.4,0c0,-5.5 -6.2,-8 -12.6,-8s-13.3,2.4 -13.3,7.9z" fill="#d0302a" fill-rule="evenodd"/>
   <path id="svg_6" d="m545.3,530.92592l5.6,0l9,-15.9l9,15.9l5.8,0l-14.8,-25.9l-14.6,25.9zm16,-26.1l3.7,-4.8l-4.8,0l-1.7,4.8l2.8,0zm-3.4,24a2,2 0 1 0 4,0a2,2 0 0 0 -4,0z" fill="#d0302a" fill-rule="evenodd"/>
   <polygon id="svg_7" points="611.5999755859375,506.3259506225586 611.5999755859375,522.0259017944336 593.4000244140625,505.62593841552734 593.4000244140625,530.9259262084961 598.4000244140625,530.9259262084961 598.4000244140625,515.9259262084961 616.5,532.0259017944336 616.5,506.3259506225586 611.5999755859375,506.3259506225586 " fill="#d0302a" fill-rule="evenodd"/>
   <path id="svg_8" d="m648.2,530.92592a12.3,12.3 0 0 0 12.4,-12.4c0,-6.9 -5.5,-12.2 -12.6,-12.2l-10.5,0l0,24.6l10.7,0zm-5.7,-19.8l4.8,0c4.3,0 8.2,2.6 8.2,7.4s-3.5,7.6 -8.1,7.6l-4.9,0l0,-15z" fill="#d0302a" fill-rule="evenodd"/>
   <polygon id="svg_9" points="686.0999755859375,530.9259262084961 694.4000244140625,517.7259140014648 702.7000122070312,530.9259262084961 709.9000244140625,506.3259506225586 704.7999877929688,506.3259506225586 700.4000244140625,520.9259262084961 694.4000244140625,510.4259262084961 688.4000244140625,520.9259262084961 684,506.3259506225586 678.9000244140625,506.3259506225586 686.0999755859375,530.9259262084961 " fill="#d0302a" fill-rule="evenodd"/>
   <rect id="svg_10" x="726.3" y="506.32592" width="4.9" height="24.52" fill="#d0302a"/>
   <path id="svg_11" d="m762.5,531.32592a14,14 0 0 0 12.4,-7.1l-4.8,-1.6a9.1,9.1 0 0 1 -7.6,3.9c-4.9,0 -8.7,-3.7 -8.7,-7.9s4.1,-7.9 8.7,-7.9a8.6,8.6 0 0 1 7.6,4.1l4.8,-1.6a13.9,13.9 0 0 0 -12.4,-7.2c-7.6,0 -13.8,5.6 -13.8,12.6s6.2,12.7 13.8,12.7z" fill="#d0302a" fill-rule="evenodd"/>
   <polygon id="svg_12" points="799.800048828125,530.9259262084961 799.800048828125,520.9259262084961 813,520.9259262084961 813,530.9259262084961 818,530.9259262084961 818,506.3259506225586 813,506.3259506225586 813,516.6259384155273 799.800048828125,516.6259384155273 799.800048828125,506.3259506225586 794.9000244140625,506.3259506225586 794.9000244140625,530.9259262084961 799.800048828125,530.9259262084961 " fill="#d0302a" fill-rule="evenodd"/>
   <path id="svg_13" d="m31.8,466.32592l0,-63.6l-31.8,0l0,86.3l75,0l0,-22.7l-43.2,0z" fill="#e0782f"/>
   <path id="svg_14" d="m81.8,489.02592l34.9,0l16.5,-29.8l16.7,29.8l34.9,0l-51.6,-92.2l-51.4,92.2zm51.4,-0.2a7.1,7.1 0 1 0 -7,-7.1a7.1,7.1 0 0 0 7,7.1z" fill="#e0782f"/>
   <path id="svg_15" d="m258.9,402.72592l0,86.3l86.4,0l0,-25l-56.8,0l0,-9.2l47.7,0l0,-20.3l-47.7,0l0,-9.1l56.8,0l0,-22.7l-86.4,0z" fill="#e0782f"/>
   <path id="svg_16" d="m355.4,430.82592c0,16.3 16.8,24.1 30.4,24.1l16.4,0c2.9,0 8.4,0.3 8.4,4.3s-6,6.3 -9.6,6.3s-8,-1.8 -8.6,-6l-35.9,0c0,21.5 29.5,27.2 45.2,27.2c18.2,0 44.4,-7.6 44.4,-28.3c0,-16.1 -16,-23.9 -29.7,-23.9l-15.4,0c-3.4,0 -9.8,-0.4 -9.8,-5.1s6.2,-6.4 9.9,-6.4s9,2.4 10,6.9l33.7,0c0,-19.2 -23.1,-27.9 -43.2,-27.9s-46.2,8.1 -46.2,28.8z" fill="#e0782f"/>
   <path id="svg_17" d="m455.7,445.32592c0,26 24,43.5 48.5,43.5a55.8,55.8 0 0 0 12.2,-1.5c9.4,8 21.2,13.1 33.6,13.1a32.1,32.1 0 0 0 8.8,-1l0,-18.2a25.2,25.2 0 0 1 -6.3,0.9a34.5,34.5 0 0 1 -16.2,-4.2c10,-8 16.5,-19.8 16.5,-32.6c0,-26.1 -24,-43.6 -48.6,-43.6s-48.5,17.5 -48.5,43.6zm48.3,-14.9c8.3,0 16.9,5.8 16.9,14.7s-8.6,14.7 -16.9,14.7s-16.9,-5.7 -16.9,-14.7s8.5,-14.7 16.9,-14.7z" fill="#e0782f"/>
   <path id="svg_18" d="m561,402.72592l0,43.8c0,24.1 16.4,43.6 43.2,43.6s43.2,-19.5 43.2,-43.6l0,-43.8l-29.6,0l0,43.8c0,8.1 -3.2,14.7 -12.5,14.7s-12.5,-6.6 -12.5,-14.7l0,-43.8l-31.8,0z" fill="#e0782f"/>
   <path id="svg_19" d="m690.5,489.02592l0,-86.3l-29.5,0l0,86.3l29.5,0z" fill="#e0782f"/>
   <path id="svg_20" d="m758.7,402.72592l0,34l-54.6,-37.3l0,89.6l29.7,0l0,-29.5l56.8,34.7l0,-91.5l-31.9,0z" fill="#e0782f"/>
   <path id="svg_21" d="m801,489.02592l34.9,0l16.5,-29.8l16.7,29.8l34.9,0l-51.6,-92.2l-51.4,92.2zm51.4,-0.2a7.1,7.1 0 1 0 -7.1,-7.1a7.1,7.1 0 0 0 7.1,7.1z" fill="#e0782f"/>
   <path id="svg_22" d="m594.6,101.22592a166.8,166.8 0 0 0 -133.8,-83.2a138.4,138.4 0 0 1 128.1,138.7c0,30.7 -10.6,58.6 -26.7,82.2c-6.6,9.6 -2.4,23.1 7.7,28.9s23.6,2.7 28.9,-7.7c25.1,-48.3 25.1,-108.2 -4.2,-158.9z" fill="#d0302a" fill-rule="evenodd"/>
   <path id="svg_23" d="m305.5,84.42592a166.7,166.7 0 0 0 -3.6,157.5a138.6,138.6 0 0 1 54.3,-180.8c26.4,-15.6 55.8,-20.6 84.3,-18.7c11.7,0.8 21.1,-9.7 21,-21.4s-9.6,-21.6 -21.3,-21a165.4,165.4 0 0 0 -134.7,84.4z" fill="#da5e2b" fill-rule="evenodd"/>
   <path id="svg_24" d="m432.4,344.72592a167.1,167.1 0 0 0 137.7,-76.7a138.6,138.6 0 0 1 -183.5,44.7c-26.8,-14.9 -46.1,-37.7 -58.8,-63.2c-5.3,-10.5 -19.1,-13.3 -29.1,-7.3s-13.8,19.3 -7.3,29a165.4,165.4 0 0 0 141,73.5z" fill="#eccb6c" fill-rule="evenodd"/>
  </g>
 </g>

</svg>